<svg xmlns="http://www.w3.org/2000/svg" style="display:none">
  <defs>

    <!-- Palm tree -->
    <symbol id="i-palm" viewBox="0 0 64 64">
      <g fill="none" stroke="currentColor" stroke-width="1.6" stroke-linecap="round" stroke-linejoin="round">
        <path d="M32 60 V30" />
        <path d="M30 32 Q26 38 28 44 Q30 38 32 36" />
        <path d="M34 32 Q38 38 36 44 Q34 38 32 36" />
        <path d="M32 30 Q22 26 14 30 Q20 28 30 32" />
        <path d="M32 30 Q42 26 50 30 Q44 28 34 32" />
        <path d="M32 30 Q26 20 16 18 Q24 22 30 30" />
        <path d="M32 30 Q38 20 48 18 Q40 22 34 30" />
        <path d="M32 30 Q30 18 26 10 Q32 18 32 30" />
        <circle cx="32" cy="30" r="1.6" fill="currentColor" stroke="none" />
        <path d="M22 60 Q32 58 42 60" />
      </g>
    </symbol>

    <!-- Dog (sitting, in profile) -->
    <symbol id="i-dog" viewBox="0 0 64 64">
      <g fill="none" stroke="currentColor" stroke-width="1.6" stroke-linecap="round" stroke-linejoin="round">
        <path d="M14 38 Q14 28 22 26 Q26 22 32 22 Q40 22 42 26 L48 22 L46 30 Q50 32 50 38 L50 50 Q50 52 48 52 L44 52 L44 46" />
        <path d="M44 46 Q40 48 36 48 Q34 48 32 48 L32 52 Q32 54 30 54 L26 54 L26 48" />
        <path d="M22 26 L20 22 L24 24" />
        <path d="M28 30 L29 32" />
        <path d="M22 32 Q20 32 19 34" />
      </g>
    </symbol>

    <!-- Cow (face-on) -->
    <symbol id="i-cow" viewBox="0 0 64 64">
      <g fill="none" stroke="currentColor" stroke-width="1.6" stroke-linecap="round" stroke-linejoin="round">
        <path d="M14 24 Q12 16 18 16 Q22 18 24 22" />
        <path d="M50 24 Q52 16 46 16 Q42 18 40 22" />
        <ellipse cx="32" cy="34" rx="18" ry="16" />
        <ellipse cx="32" cy="44" rx="10" ry="8" />
        <circle cx="26" cy="32" r="1.6" fill="currentColor" stroke="none" />
        <circle cx="38" cy="32" r="1.6" fill="currentColor" stroke="none" />
        <circle cx="29" cy="44" r="1.2" fill="currentColor" stroke="none" />
        <circle cx="35" cy="44" r="1.2" fill="currentColor" stroke="none" />
        <path d="M22 24 Q20 20 24 22" />
        <path d="M42 24 Q44 20 40 22" />
      </g>
    </symbol>

    <!-- Beer mug -->
    <symbol id="i-beer" viewBox="0 0 64 64">
      <g fill="none" stroke="currentColor" stroke-width="1.6" stroke-linecap="round" stroke-linejoin="round">
        <path d="M22 20 Q22 16 26 16 Q28 14 32 16 Q36 14 38 16 Q42 14 44 18 Q42 20 40 18" />
        <path d="M20 20 H42 V52 Q42 56 38 56 H24 Q20 56 20 52 Z" />
        <path d="M42 26 H48 Q52 26 52 32 V42 Q52 48 48 48 H42" />
        <path d="M24 26 H38" />
        <path d="M24 32 L26 50" />
        <path d="M30 26 L30 50" />
        <path d="M36 26 L34 50" />
      </g>
    </symbol>

    <!-- Baseball -->
    <symbol id="i-ball" viewBox="0 0 64 64">
      <g fill="none" stroke="currentColor" stroke-width="1.6" stroke-linecap="round" stroke-linejoin="round">
        <circle cx="32" cy="32" r="20" />
        <path d="M16 24 Q22 26 22 32 Q22 38 16 40" />
        <path d="M48 24 Q42 26 42 32 Q42 38 48 40" />
        <path d="M19 25 L17 24 M19 28 L17 27 M19 31 L17 30 M19 34 L17 33 M19 37 L17 36 M19 40 L17 39" />
        <path d="M45 25 L47 24 M45 28 L47 27 M45 31 L47 30 M45 34 L47 33 M45 37 L47 36 M45 40 L47 39" />
      </g>
    </symbol>

    <!-- Beach (umbrella + waves) -->
    <symbol id="i-beach" viewBox="0 0 64 64">
      <g fill="none" stroke="currentColor" stroke-width="1.6" stroke-linecap="round" stroke-linejoin="round">
        <path d="M32 8 V40" />
        <path d="M32 14 Q22 14 16 22 Q24 20 32 22 Q40 20 48 22 Q42 14 32 14 Z" />
        <path d="M22 22 L24 17 M30 22 L31 16 M34 22 L33 16 M42 22 L40 17" />
        <path d="M8 50 Q14 46 20 50 T32 50 T44 50 T56 50" />
        <path d="M8 56 Q14 52 20 56 T32 56 T44 56 T56 56" />
      </g>
    </symbol>

    <!-- Sunset (sun behind horizon) -->
    <symbol id="i-sunset" viewBox="0 0 64 64">
      <g fill="none" stroke="currentColor" stroke-width="1.6" stroke-linecap="round" stroke-linejoin="round">
        <path d="M14 42 A18 18 0 0 1 50 42" />
        <path d="M6 42 H58" />
        <path d="M32 18 V14" />
        <path d="M18 22 L15 19" />
        <path d="M46 22 L49 19" />
        <path d="M11 32 H7" />
        <path d="M53 32 H57" />
        <path d="M10 50 Q16 48 22 50 T34 50 T46 50 T58 50" />
        <path d="M10 56 Q16 54 22 56 T34 56 T46 56 T58 56" />
      </g>
    </symbol>

  </defs>
</svg>
